<svg width="20" height="20" viewBox="0 0 20 20" fill="none" xmlns="http://www.w3.org/2000/svg">
<path d="M6.57356 6.07148C6.57356 6.16821 6.61076 6.25377 6.68516 6.32818L11.0713 10.7143L6.68516 15.1005C6.61076 15.1749 6.57356 15.2605 6.57356 15.3572C6.57356 15.4539 6.61076 15.5395 6.68516 15.6139L7.2432 16.1719C7.3176 16.2463 7.40317 16.2835 7.4999 16.2835C7.59662 16.2835 7.68219 16.2463 7.75659 16.1719L12.9575 10.971C13.0319 10.8966 13.0691 10.8111 13.0691 10.7143C13.0691 10.6176 13.0319 10.532 12.9575 10.4576L7.75659 5.25675C7.68219 5.18234 7.59662 5.14514 7.4999 5.14514C7.40317 5.14514 7.3176 5.18234 7.2432 5.25675L6.68516 5.81478C6.61076 5.88919 6.57356 5.97475 6.57356 6.07148Z" fill="#A4A4A4"/>
</svg>
