<svg width="18" height="14" viewBox="0 0 18 14" fill="none" xmlns="http://www.w3.org/2000/svg">
<path d="M1.50062 6.16601L14.489 6.16601L10.0781 1.75518C9.99932 1.67811 9.9366 1.58618 9.89357 1.48471C9.85055 1.38323 9.82808 1.27423 9.82748 1.16401C9.82687 1.05379 9.84813 0.944549 9.89004 0.842605C9.93194 0.740662 9.99365 0.648043 10.0716 0.570113C10.1495 0.492183 10.2422 0.430488 10.3441 0.388603C10.4461 0.346718 10.5553 0.325473 10.6655 0.326099C10.7758 0.326726 10.8848 0.349212 10.9862 0.392253C11.0877 0.435294 11.1796 0.498036 11.2567 0.576848L17.09 6.41018C17.2462 6.56646 17.334 6.77838 17.334 6.99935C17.334 7.22032 17.2462 7.43224 17.09 7.58851L11.2567 13.4218C11.1794 13.4994 11.0875 13.5609 10.9863 13.6028C10.8852 13.6447 10.7768 13.6662 10.6673 13.666C10.5025 13.666 10.3414 13.6171 10.2044 13.5255C10.0674 13.4339 9.96061 13.3038 9.89756 13.1516C9.8345 12.9993 9.818 12.8318 9.85013 12.6702C9.88227 12.5085 9.96161 12.3601 10.0781 12.2435L14.489 7.83268L1.50062 7.83268C1.27961 7.83268 1.06765 7.74488 0.911365 7.5886C0.755085 7.43232 0.667288 7.22036 0.667288 6.99935C0.667288 6.77833 0.755085 6.56637 0.911365 6.41009C1.06765 6.25381 1.27961 6.16601 1.50062 6.16601Z" fill="#616161"/>
</svg>
