<svg width="18" height="14" viewBox="0 0 18 14" fill="none" xmlns="http://www.w3.org/2000/svg">
<path d="M16.4994 6.16601L3.51105 6.16601L7.92188 1.75518C8.00068 1.67811 8.0634 1.58618 8.10643 1.48471C8.14945 1.38323 8.17192 1.27423 8.17252 1.16401C8.17313 1.05379 8.15187 0.944549 8.10996 0.842605C8.06806 0.740662 8.00635 0.648043 7.92841 0.570113C7.85046 0.492183 7.75783 0.430488 7.65588 0.388603C7.55393 0.346718 7.44468 0.325473 7.33447 0.326099C7.22425 0.326726 7.11525 0.349212 7.01378 0.392253C6.91231 0.435294 6.82039 0.498036 6.74334 0.576848L0.910004 6.41018C0.753778 6.56646 0.666016 6.77838 0.666016 6.99935C0.666016 7.22032 0.753778 7.43224 0.910004 7.58851L6.74334 13.4218C6.82064 13.4994 6.9125 13.5609 7.01365 13.6028C7.1148 13.6447 7.22323 13.6662 7.33271 13.666C7.4975 13.666 7.65859 13.6171 7.79559 13.5255C7.9326 13.4339 8.03939 13.3038 8.10244 13.1516C8.1655 12.9993 8.182 12.8318 8.14987 12.6702C8.11773 12.5085 8.03839 12.3601 7.92188 12.2435L3.51105 7.83268L16.4994 7.83268C16.7204 7.83268 16.9324 7.74488 17.0886 7.5886C17.2449 7.43232 17.3327 7.22036 17.3327 6.99935C17.3327 6.77833 17.2449 6.56637 17.0886 6.41009C16.9324 6.25381 16.7204 6.16601 16.4994 6.16601Z" fill="#616161"/>
</svg>
