<svg width="17" height="14" viewBox="0 0 17 14" fill="none" xmlns="http://www.w3.org/2000/svg">
<path d="M1.16664 6.16992L14.155 6.16992L9.74414 1.75909C9.66534 1.68202 9.60261 1.59009 9.55959 1.48861C9.51657 1.38714 9.4941 1.27813 9.49349 1.16791C9.49289 1.0577 9.51415 0.948455 9.55605 0.846512C9.59796 0.744568 9.65967 0.65195 9.73761 0.574019C9.81555 0.496089 9.90818 0.434395 10.0101 0.392509C10.1121 0.350624 10.2213 0.329379 10.3316 0.330006C10.4418 0.330632 10.5508 0.353118 10.6522 0.396159C10.7537 0.4392 10.8456 0.501943 10.9227 0.580754L16.756 6.41409C16.9122 6.57036 17 6.78228 17 7.00325C17 7.22422 16.9122 7.43615 16.756 7.59242L10.9227 13.4258C10.8454 13.5033 10.7535 13.5648 10.6524 13.6067C10.5512 13.6486 10.4428 13.6701 10.3333 13.6699C10.1685 13.6699 10.0074 13.621 9.87042 13.5294C9.73341 13.4379 9.62663 13.3077 9.56357 13.1555C9.50051 13.0032 9.48401 12.8357 9.51615 12.6741C9.54829 12.5124 9.62763 12.364 9.74414 12.2474L14.155 7.83659L1.16664 7.83659C0.945623 7.83659 0.733662 7.74879 0.577381 7.59251C0.421101 7.43623 0.333303 7.22427 0.333303 7.00325C0.333303 6.78224 0.421101 6.57028 0.577381 6.414C0.733662 6.25772 0.945623 6.16992 1.16664 6.16992Z" fill="#616161"/>
</svg>
