<svg width="60" height="61" viewBox="0 0 60 61" fill="none" xmlns="http://www.w3.org/2000/svg">
<path d="M53.3768 48.3002V52.0625C53.3768 52.5477 52.983 52.9414 52.4979 52.9414C52.0127 52.9414 51.6189 52.5477 51.6189 52.0625V48.3002C51.6189 46.2072 49.9162 44.5039 47.8227 44.5039H42.1725C40.0795 44.5039 38.3762 46.2066 38.3762 48.3002V52.0625C38.3762 52.5477 37.9824 52.9414 37.4973 52.9414C37.0121 52.9414 36.6184 52.5477 36.6184 52.0625V48.3002C36.6184 46.2072 34.9156 44.5039 32.8221 44.5039H27.1719C25.0789 44.5039 23.3756 46.2066 23.3756 48.3002V52.0625C23.3756 52.5477 22.9818 52.9414 22.4967 52.9414C22.0115 52.9414 21.6178 52.5477 21.6178 52.0625V48.3002C21.6178 46.2072 19.915 44.5039 17.8215 44.5039H12.1713C10.0783 44.5039 8.375 46.2066 8.375 48.3002V52.0625C8.375 52.5477 7.98125 52.9414 7.49609 52.9414C7.01094 52.9414 6.61719 52.5477 6.61719 52.0625V48.3002C6.61719 45.2375 9.10859 42.7461 12.1713 42.7461H17.8215C19.7814 42.7461 21.5076 43.7668 22.4967 45.3043C23.4852 43.7668 25.2113 42.7461 27.1719 42.7461H32.8221C34.782 42.7461 36.5082 43.7668 37.4973 45.3043C38.4857 43.7668 40.2119 42.7461 42.1725 42.7461H47.8227C50.8853 42.7461 53.3768 45.2375 53.3768 48.3002ZM16.9326 28.6836H13.0637C11.0609 28.6836 9.43203 30.3131 9.43203 32.3152V36.125C9.43203 39.1941 11.9293 41.6914 14.9984 41.6914C18.0676 41.6914 20.5648 39.1941 20.5648 36.125V32.3152C20.5643 30.3131 18.9348 28.6836 16.9326 28.6836ZM8.49395 23V20.2396C8.49395 18.6922 9.75254 17.4336 11.3 17.4336H14.9457C16.4932 17.4336 17.7518 18.6922 17.7518 20.2396V23C17.7518 25.5523 15.6752 27.6289 13.1229 27.6289C10.5705 27.6289 8.49395 25.5523 8.49395 23ZM10.2518 23C10.2518 24.5832 11.5396 25.8711 13.1229 25.8711C14.7061 25.8711 15.9939 24.5832 15.9939 23V20.2396C15.9939 19.6619 15.524 19.1914 14.9457 19.1914H11.3C10.7223 19.1914 10.2518 19.6613 10.2518 20.2396V23ZM19.7439 20.2396V23C19.7439 25.5523 21.8205 27.6289 24.3729 27.6289C26.9252 27.6289 29.0018 25.5523 29.0018 23V20.2396C29.0018 18.6922 27.7432 17.4336 26.1957 17.4336H22.55C21.0025 17.4336 19.7439 18.6922 19.7439 20.2396ZM30.9939 20.2396V23C30.9939 25.5523 33.0705 27.6289 35.6229 27.6289C38.1752 27.6289 40.2518 25.5523 40.2518 23V20.2396C40.2518 18.6922 38.9932 17.4336 37.4457 17.4336H33.8C32.2525 17.4336 30.9939 18.6922 30.9939 20.2396ZM45.05 17.4336H48.6957C50.2432 17.4336 51.5018 18.6922 51.5018 20.2396V23C51.5018 25.5523 49.4252 27.6289 46.8729 27.6289C44.3205 27.6289 42.2439 25.5523 42.2439 23V20.2396C42.2439 18.6922 43.5025 17.4336 45.05 17.4336ZM44.0018 23C44.0018 24.5832 45.2896 25.8711 46.8729 25.8711C48.4561 25.8711 49.7439 24.5832 49.7439 23V20.2396C49.7439 19.6619 49.274 19.1914 48.6957 19.1914H45.05C44.4723 19.1914 44.0018 19.6613 44.0018 20.2396V23ZM17.8104 16.3789C19.8459 16.3789 21.5018 14.723 21.5018 12.6875V10.383C21.5018 9.10156 20.4594 8.05859 19.1773 8.05859H16.4428C15.1613 8.05859 14.1184 9.10098 14.1184 10.383V12.6875C14.1189 14.723 15.7748 16.3789 17.8104 16.3789ZM26.3064 12.6875V10.383C26.3064 9.10156 27.3488 8.05859 28.6309 8.05859H31.3654C32.6469 8.05859 33.6898 9.10098 33.6898 10.383V12.6875C33.6898 14.723 32.034 16.3789 29.9984 16.3789C27.9629 16.3789 26.3064 14.723 26.3064 12.6875ZM28.0643 12.6875C28.0643 13.7539 28.9314 14.6211 29.9979 14.6211C31.0643 14.6211 31.9314 13.7539 31.9314 12.6875V10.383C31.9314 10.0707 31.6771 9.81641 31.3648 9.81641H28.6303C28.318 9.81641 28.0637 10.0707 28.0637 10.383V12.6875H28.0643ZM41.2479 16.3789C43.2834 16.3789 44.9393 14.723 44.9393 12.6875V10.383C44.9393 9.10156 43.8969 8.05859 42.6148 8.05859H39.8803C38.5988 8.05859 37.5559 9.10098 37.5559 10.383V12.6875C37.5564 14.723 39.2123 16.3789 41.2479 16.3789ZM46.8945 28.6836H43.1012C41.0779 28.6836 39.4314 30.3301 39.4314 32.3533V36.125C39.4314 39.1941 41.9287 41.6914 44.9979 41.6914C48.067 41.6914 50.5643 39.1941 50.5643 36.125V32.3533C50.5643 30.3301 48.9178 28.6836 46.8945 28.6836ZM31.8945 28.6836C33.9184 28.6836 35.5643 30.3301 35.5643 32.3533V36.125C35.5643 39.1941 33.067 41.6914 29.9979 41.6914C26.9287 41.6914 24.4314 39.1941 24.4314 36.125V32.3533C24.4314 30.3295 26.0779 28.6836 28.1012 28.6836H31.8945ZM31.8945 30.4414H28.1012C27.0471 30.4414 26.1893 31.2992 26.1893 32.3533V36.125C26.1893 38.225 27.8979 39.9336 29.9979 39.9336C32.0979 39.9336 33.8064 38.225 33.8064 36.125V32.3533C33.8064 31.2992 32.9486 30.4414 31.8945 30.4414Z" fill="#473B38"/>
</svg>
