<svg width="20" height="20" viewBox="0 0 20 20" fill="none" xmlns="http://www.w3.org/2000/svg">
<g clip-path="url(#clip0_480_1405)">
<path d="M7.75316 10.0007L0.901061 16.8368C0.600997 17.1369 0.432421 17.5439 0.432421 17.9682C0.432421 18.3926 0.600997 18.7995 0.901061 19.0996C1.20112 19.3997 1.6081 19.5682 2.03245 19.5682C2.45681 19.5682 2.86378 19.3997 3.16384 19.0996L10 12.2475L16.8362 19.0996C17.1362 19.3997 17.5432 19.5682 17.9676 19.5682C18.3919 19.5682 18.7989 19.3997 19.099 19.0996C19.399 18.7995 19.5676 18.3926 19.5676 17.9682C19.5676 17.5439 19.399 17.1369 19.099 16.8368L12.2469 10.0007L19.099 3.16449C19.2483 3.01635 19.3669 2.84011 19.4478 2.64593C19.5287 2.45174 19.5703 2.24346 19.5703 2.0331C19.5703 1.82274 19.5287 1.61446 19.4478 1.42027C19.3669 1.22609 19.2483 1.04984 19.099 0.901707C18.9508 0.75235 18.7746 0.633799 18.5804 0.552899C18.3862 0.471998 18.1779 0.430348 17.9676 0.430348C17.7572 0.430348 17.5489 0.471998 17.3547 0.552899C17.1606 0.633799 16.9843 0.75235 16.8362 0.901707L10 7.7538L3.16384 0.901707C3.01571 0.75235 2.83946 0.633799 2.64528 0.552899C2.4511 0.471998 2.24281 0.430348 2.03245 0.430348C1.82209 0.430348 1.61381 0.471998 1.41962 0.552899C1.22544 0.633799 1.0492 0.75235 0.901061 0.901707C0.751703 1.04984 0.633153 1.22609 0.552252 1.42027C0.471352 1.61446 0.429701 1.82274 0.429701 2.0331C0.429701 2.24346 0.471352 2.45174 0.552252 2.64593C0.633153 2.84011 0.751703 3.01635 0.901061 3.16449L7.75316 10.0007Z" fill="black"/>
</g>
<defs>
<clipPath id="clip0_480_1405">
<rect width="20" height="20" fill="white" transform="matrix(-1 0 0 -1 20 20)"/>
</clipPath>
</defs>
</svg>
