<svg width="17" height="20" viewBox="0 0 17 20" fill="none" xmlns="http://www.w3.org/2000/svg">
<path d="M9.00727 18.9989V3.41383L14.3 8.70651C14.3924 8.80106 14.5027 8.87633 14.6245 8.92796C14.7463 8.97958 14.8771 9.00654 15.0093 9.00727C15.1416 9.008 15.2727 8.98248 15.395 8.9322C15.5173 8.88192 15.6284 8.80787 15.722 8.71434C15.8155 8.62082 15.8895 8.50967 15.9397 8.38734C15.99 8.265 16.0155 8.13391 16.0148 8.00166C16.014 7.86941 15.987 7.73862 15.9354 7.61686C15.8837 7.49511 15.8084 7.38481 15.7139 7.29235L8.71429 0.292769C8.52677 0.105309 8.27248 0 8.00733 0C7.74218 0 7.48789 0.105309 7.30038 0.292769L0.300796 7.29235C0.207763 7.3851 0.133984 7.49533 0.0837028 7.6167C0.033422 7.73807 0.00763115 7.86818 0.00781346 7.99956C0.00785568 8.19729 0.0665238 8.39058 0.176401 8.55498C0.286279 8.71938 0.442433 8.84751 0.625122 8.92318C0.807811 8.99884 1.00883 9.01865 1.20277 8.98008C1.39671 8.94151 1.57487 8.84631 1.71471 8.70651L7.00739 3.41383V18.9989C7.00739 19.2641 7.11274 19.5184 7.30027 19.706C7.48779 19.8935 7.74213 19.9988 8.00733 19.9988C8.27253 19.9988 8.52687 19.8935 8.7144 19.706C8.90192 19.5184 9.00727 19.2641 9.00727 18.9989Z" fill="black"/>
</svg>
