<svg width="28" height="28" viewBox="0 0 28 28" fill="none" xmlns="http://www.w3.org/2000/svg">
<path d="M20.0926 14.4592V21.5768C20.0926 21.9527 19.9686 22.3006 19.7594 22.5806C19.4528 22.9908 18.9642 23.2561 18.4133 23.2561H4.03596C3.48436 23.2561 2.99506 22.9908 2.68916 22.5806C2.66676 22.5505 2.64506 22.5197 2.62476 22.4875C2.4489 22.2163 2.35553 21.9 2.35596 21.5768V7.19943C2.35596 6.27123 3.10776 5.5202 4.03596 5.5202H18.4133C19.0335 5.5202 19.5753 5.8562 19.8658 6.3567L17.5544 8.66873L12.4388 13.785L8.71266 10.059C8.05466 9.401 6.73936 9.401 6.08276 10.059L4.54836 11.5927C4.31526 11.8258 4.16476 12.1415 4.09756 12.4809C3.97296 13.099 4.12346 13.7983 4.54836 14.2233L11.1235 20.7984C11.7808 21.4557 13.0954 21.4557 13.7534 20.7984L15.2878 19.264L20.0926 14.4592Z" fill="#F0EEEC"/>
<path d="M25.1505 9.40093L20.093 14.4592L15.2882 19.264L13.7538 20.7984C13.0958 21.4557 11.7812 21.4557 11.1239 20.7984L4.5488 14.2233C4.1239 13.7984 3.9734 13.099 4.098 12.4809C4.1652 12.1414 4.3157 11.8258 4.5488 11.5927L6.0832 10.059C6.7398 9.401 8.0551 9.401 8.7131 10.059L12.4392 13.785L17.5548 8.66873L19.8662 6.3567L20.9862 5.2374C21.6442 4.5794 22.9595 4.5794 23.6161 5.2374L25.1505 6.7711C25.3297 6.95093 25.4606 7.1792 25.5418 7.42973C25.7595 8.09753 25.6286 8.92283 25.1505 9.40093Z" fill="#CDA782"/>
</svg>
